<!--?xml version="1.0" encoding="utf-8"?-->
<!-- Generator: Adobe Illustrator 23.0.3, SVG Export Plug-In . SVG Version: 6.00 Build 0)  -->
<svg version="1.1" id="Layer_1" xmlns="http://www.w3.org/2000/svg" xmlns:xlink="http://www.w3.org/1999/xlink" x="0px" y="0px" viewBox="0 0 582.13 623.49" style="" xml:space="preserve">
<style type="text/css">
	.st0{fill:none;stroke:#FF4C00;stroke-miterlimit:10;}
</style>
<path class="st0 eYiOsFTr_0" d="M548.97,203.53c-1.1,1.22-2.28,2.37-3.27,3.68c-4.17,5.52-8.29,11.08-12.41,16.64
	c-3.45,4.65-6.85,9.32-10.3,13.96c-3.89,5.21-7.83,10.39-11.72,15.6c-5.79,7.75-11.53,15.52-17.32,23.27
	c-5.04,6.73-10.14,13.42-15.18,20.16c-5.68,7.6-11.28,15.24-16.96,22.83c-4.07,5.45-8.24,10.83-12.32,16.27
	c-3.87,5.15-7.68,10.34-11.53,15.51c-3.56,4.78-7.14,9.55-10.71,14.33c-2.89,3.87-5.75,7.78-8.7,11.6
	c-2.62,3.39-5.34,6.7-8.23,10.31c-0.42-0.8-0.71-1.27-0.93-1.78c-7.99-18.29-15.94-36.6-23.99-54.86c-0.91-2.07,0.43-3.09,1.41-4.18
	c5.62-6.25,12.49-10.91,19.62-15.21c9.43-5.68,18.91-11.36,27.12-18.73c4.92-4.42,9.39-9.38,13.72-14.39
	c7.7-8.91,13.07-19.28,17.77-29.99c3.98-9.07,6.63-18.57,7.89-28.39c0.52-4.02,0.61-8.09,0.78-12.15c0.11-2.73,0.06-5.47,0.01-8.21
	c-0.17-9.17-1.44-18.21-3.93-27.03c-1.86-6.61-4.28-13.06-6.35-19.61c-0.24-0.77-0.16-1.94,0.28-2.58
	c8.67-12.72,17.42-25.4,26.16-38.08c1.9-2.75,3.78-5.51,5.69-8.26c0.16-0.23,0.42-0.39,0.76-0.7c1.58,2.93,3.12,5.75,4.63,8.58
	c3.4,6.39,6.79,12.78,10.16,19.17c3.46,6.56,6.9,13.13,10.37,19.68c4.2,7.93,8.43,15.83,12.64,23.76
	c3.42,6.44,6.8,12.91,10.25,19.34c1.46,2.72,3.06,5.36,4.59,8.03C548.97,202.57,548.97,203.05,548.97,203.53z"></path>
<path class="st0 eYiOsFTr_1" d="M442.77,15.97c0.65,0.21,1.3,0.59,1.96,0.6c6.7,0.18,13.4,0.26,20.11,0.45c8.13,0.22,16.25,0.52,24.38,0.78
	c3.64,0.12,7.29,0.26,10.93,0.37c8.19,0.26,16.38,0.5,24.57,0.76c3.7,0.12,7.4,0.25,11.1,0.4c0.61,0.02,1.22,0.16,2.21,0.29
	c-27.42,39.81-54.63,79.3-81.97,119c-17.54-26.36-41.04-44.05-72.33-51.36c15.92-23.88,31.72-47.58,47.53-71.29
	C435.09,15.97,438.93,15.97,442.77,15.97z"></path>
<path class="st0 eYiOsFTr_2" d="M364.65,114.61c3.7,0.61,7.76,1.25,11.81,1.95c2.25,0.39,4.52,0.76,6.73,1.31c2.13,0.53,4.24,1.19,6.28,1.99
	c2.53,1,5,2.17,7.46,3.35c2.59,1.24,5.17,2.49,7.68,3.87c1.58,0.87,2.9,2.28,4.55,2.95c2.47,1,3.96,3.15,6.06,4.56
	c2.13,1.43,3.83,3.51,5.62,5.4c1.63,1.72,3.13,3.57,4.69,5.36c1.59,1.82,3.25,3.59,4.76,5.47c0.42,0.53,0.33,1.44,0.67,2.08
	c1.18,2.23,2.44,4.43,3.67,6.63c0.9,1.61,1.91,3.16,2.67,4.83c0.35,0.78,0.79,1.56-0.15,2.68c-2.05,2.42-3.72,5.17-5.5,7.82
	c-2.69,4.01-5.3,8.07-8,12.07c-1.86,2.75-3.85,5.4-5.72,8.13c-1.72,2.51-3.34,5.08-5.06,7.59c-1.17,1.71-2.43,3.35-3.63,5.04
	c-1.79,2.54-3.56,5.1-5.34,7.65c-2.06,2.97-4.12,5.94-6.18,8.92c-1.63,2.36-3.26,4.73-4.9,7.09c-1.38,1.98-2.81,3.93-4.16,5.92
	c-2.75,4.06-5.43,8.17-8.21,12.22c-1.98,2.89-4.11,5.69-6.09,8.59c-2.11,3.08-4.1,6.23-6.2,9.31c-1.52,2.22-3.16,4.36-4.67,6.59
	c-1.71,2.51-3.29,5.11-5,7.61c-1.89,2.77-3.9,5.46-5.8,8.22c-1.7,2.47-3.28,5.01-4.98,7.48c-1.63,2.36-3.36,4.65-4.99,7.01
	c-2.1,3.04-4.14,6.13-6.23,9.18c-1.92,2.79-3.9,5.55-5.81,8.35c-1.7,2.49-3.3,5.05-5.02,7.53c-1.61,2.32-3.35,4.54-4.96,6.86
	c-2.07,2.99-4.05,6.04-6.11,9.04c-1.66,2.41-3.4,4.77-5.07,7.17c-3.24,4.67-6.45,9.36-9.68,14.03c-0.5,0.73-1.05,1.11-2.01,0.48
	c-4.47-2.97-8.96-5.9-13.47-8.8c-4.61-2.96-9.29-5.82-13.87-8.82c-3.13-2.04-6.15-4.25-9.22-6.38c-3.63-2.53-7.28-5.05-10.89-7.61
	c-1.82-1.29-3.64-2.6-5.35-4.03c-0.35-0.29-0.5-1.34-0.26-1.74c1.6-2.56,3.42-4.99,4.99-7.57c0.99-1.64,1.72-3.45,2.48-5.22
	c1.49-3.5,3-6.99,4.36-10.54c1.54-4.02,3-8.08,4.35-12.18c0.72-2.18,1.1-4.46,1.68-6.68c0.62-2.35,1.36-4.67,1.94-7.03
	c0.55-2.24,0.94-4.51,1.44-6.76c0.64-2.84,1.34-5.67,1.97-8.51c0.46-2.06,0.67-4.2,1.31-6.2c0.62-1.92,1.51-3.79,2.55-5.51
	c2.04-3.37,4.24-6.65,6.45-9.91c2.82-4.16,5.76-8.23,8.57-12.4c2.13-3.16,4.08-6.45,6.19-9.62c2.4-3.61,4.93-7.13,7.34-10.73
	c2.85-4.25,5.62-8.56,8.47-12.82c2.46-3.69,4.99-7.35,7.47-11.03c1.7-2.52,3.34-5.07,5.05-7.58c1.62-2.38,3.32-4.7,4.93-7.08
	c1.76-2.61,3.47-5.25,5.2-7.88c1.53-2.32,3.08-4.63,4.59-6.96c2.36-3.63,4.65-7.31,7.05-10.92c2.4-3.59,4.94-7.08,7.34-10.68
	c2.86-4.28,5.6-8.65,8.44-12.94C360.67,120.22,362.52,117.67,364.65,114.61z"></path>
<path class="st0 eYiOsFTr_3" d="M136.25,602.89c-2.81-9.15-5.48-17.83-8.15-26.51c-4.31-14-8.61-28-12.93-42c-3-9.72-6.01-19.44-9.09-29.13
	c-0.47-1.47-0.25-2.65,0.57-3.87c7.88-11.75,15.76-23.5,23.62-35.26c7.8-11.66,15.6-23.33,23.4-35
	c7.66-11.47,15.32-22.94,22.99-34.4c8.34-12.45,16.7-24.87,25.04-37.32c4.48-6.7,8.92-13.42,13.38-20.13
	c0.26-0.39,0.61-0.71,1.16-1.32c0.78,3.44,1.57,6.6,2.2,9.78c0.79,3.97,1.4,7.98,2.21,11.94c0.17,0.85,0.68,1.84,1.34,2.36
	c10.17,7.86,20.21,15.9,30.65,23.39c7.08,5.08,14.72,9.38,22.11,14.04c0.3,0.19,0.59,0.38,1.13,0.74
	C229.41,467.65,182.98,535.05,136.25,602.89z"></path>
<path class="st0 eYiOsFTr_4" d="M417.08,16.6c-4.73,6.89-9.14,13.26-13.51,19.67c-5.82,8.53-11.59,17.1-17.4,25.64
	c-5.04,7.4-10.1,14.79-15.21,22.14c-0.32,0.46-1.17,0.81-1.75,0.78c-3.87-0.19-7.73-0.6-11.6-0.74c-2.25-0.08-4.54,0.08-6.78,0.4
	c-4.59,0.66-9.18,1.39-13.73,2.31c-6.83,1.38-13.35,3.77-19.65,6.68c-7.46,3.44-14.66,7.41-21.12,12.51
	c-5.15,4.06-10.04,8.45-14.92,12.84c-2.44,2.19-4.6,4.7-6.9,7.05c-4.27,4.37-7.41,9.52-10.21,14.89
	c-6.67,12.82-10.83,26.5-13.58,40.62c-1.37,7.06-2.71,14.15-3.66,21.28c-0.81,6.08-1.05,12.24-1.5,18.37
	c-0.18,2.44-0.29,4.89-0.35,7.34c-0.02,1.04-0.47,1.31-1.43,1.33c-4.78,0.1-9.56,0.24-14.34,0.39c-8.24,0.26-16.49,0.54-24.73,0.82
	c-3.82,0.13-7.65,0.29-11.47,0.41c-10.52,0.31-21.04,0.61-31.57,0.91c-0.64,0.02-1.28,0-2.28,0c2.23-3.33,4.28-6.4,6.32-9.46
	c6.6-9.89,13.18-19.8,19.82-29.67c5.97-8.87,12.03-17.67,18-26.53c6.04-8.96,12.01-17.97,18.04-26.93
	c7.77-11.54,15.58-23.04,23.35-34.57c6.4-9.51,12.75-19.05,19.15-28.56c7.03-10.45,14.11-20.87,21.14-31.32
	c5.1-7.58,10.18-15.17,15.22-22.78c0.67-1.01,1.42-1.44,2.64-1.46c5.45-0.07,10.89-0.17,16.34-0.37c6.56-0.23,13.12-0.58,19.68-0.86
	c6.32-0.28,12.64-0.55,18.96-0.8c6.39-0.26,12.77-0.5,19.16-0.75c6.57-0.26,13.13-0.5,19.7-0.77c5.91-0.25,11.81-0.53,17.72-0.8
	C415.28,16.57,415.92,16.6,417.08,16.6z"></path>
<path class="st0 eYiOsFTr_5" d="M207.3,324.5c-1.02,1.71-1.88,3.35-2.91,4.88c-2.38,3.53-4.83,7.02-7.27,10.52c-3.1,4.45-6.26,8.87-9.32,13.34
	c-2.54,3.7-4.97,7.47-7.46,11.19c-1.89,2.83-3.8,5.64-5.69,8.46c-2.82,4.21-5.62,8.42-8.46,12.62c-2.71,4.02-5.42,8.04-8.2,12.01
	c-2.12,3.03-4.42,5.94-6.52,8.98c-1.87,2.7-3.53,5.55-5.36,8.27c-1.82,2.72-3.77,5.35-5.62,8.06c-1.76,2.58-3.41,5.24-5.18,7.81
	c-2.96,4.29-5.99,8.53-8.96,12.82c-1.6,2.32-3.11,4.7-4.68,7.04c-1.08,1.61-2.17,3.22-3.3,4.81c-1.34,1.89-2.83,3.69-4.06,5.66
	c-0.77,1.23-1.46,0.54-1.95,0.05c-2.96-2.95-5.8-6.02-8.77-8.96c-4.92-4.88-9.92-9.68-14.87-14.54c-2.39-2.35-4.7-4.78-7.12-7.09
	c-4.19-4.01-8.47-7.93-12.64-11.97c-3.26-3.16-6.35-6.5-9.59-9.68c-2.78-2.73-5.69-5.33-8.5-8.04c-0.98-0.94-1.9-1.98-2.67-3.1
	c-0.25-0.37-0.13-1.26,0.15-1.7c1.3-2.05,2.73-4.02,4.09-6.03c3.03-4.47,6.09-8.92,9.07-13.42c2.83-4.28,5.52-8.67,8.39-12.92
	c1.95-2.89,4.19-5.58,6.13-8.46c2.45-3.63,4.7-7.4,7.12-11.06c1.81-2.74,3.75-5.39,5.61-8.09c2.89-4.2,5.78-8.38,8.61-12.62
	c2.03-3.03,3.92-6.14,5.93-9.18c1.73-2.62,3.54-5.18,5.31-7.78c2.67-3.93,5.34-7.87,8-11.81c2.79-4.14,5.57-8.29,8.36-12.43
	c2.96-4.38,5.94-8.75,8.92-13.12c0.18-0.27,0.45-0.49,0.95-1.03c-0.59,10.23-1.16,20.07-1.74,30.02c4.86,1.64,9.68,3.19,14.44,4.91
	c4.79,1.72,9.5,3.64,14.27,5.4c2.47,0.91,5.01,1.59,7.48,2.49c4.28,1.56,8.52,3.24,12.8,4.81c1.91,0.7,3.91,1.19,5.83,1.87
	c4.84,1.71,9.66,3.47,14.49,5.22C203.89,323.26,205.37,323.8,207.3,324.5z"></path>
<path class="st0 eYiOsFTr_6" d="M318.96,394.23c1.44-0.1,2.42,0.29,3.47,1.52c3.39,3.92,7.05,7.61,10.57,11.41c2.22,2.4,4.34,4.89,6.58,7.27
	c4.55,4.85,9.18,9.62,13.72,14.48c2.76,2.95,5.37,6.03,8.12,9c2.06,2.23,4.21,4.37,6.35,6.52c0.62,0.62,0.75,0.93,0.08,1.8
	c-2.98,3.89-5.76,7.93-8.67,11.88c-1.2,1.63-2.61,3.1-3.82,4.73c-2.51,3.38-4.92,6.84-7.42,10.22c-1.68,2.27-3.47,4.46-5.2,6.7
	c-2.42,3.13-4.89,6.24-7.23,9.43c-1.79,2.44-3.33,5.07-5.15,7.48c-3.11,4.12-6.41,8.1-9.52,12.22c-1.84,2.44-3.44,5.07-5.23,7.56
	c-1.09,1.52-2.4,2.89-3.51,4.4c-1.99,2.71-3.84,5.5-5.85,8.19c-1.32,1.76-2.87,3.35-4.2,5.11c-2,2.64-3.87,5.39-5.85,8.04
	c-1.38,1.85-2.76,3.71-4.34,5.38c-0.46,0.48-1.65,0.57-2.42,0.42c-3.73-0.74-7.44-1.61-11.16-2.46c-4.72-1.07-9.45-2.15-14.16-3.25
	c-5.14-1.19-10.29-2.4-15.42-3.62c-4.43-1.05-8.84-2.16-13.27-3.21c-5.11-1.22-10.23-2.4-15.34-3.61
	c-5.06-1.19-10.11-2.43-15.18-3.57c-1.29-0.29-1.41-0.99-0.82-1.86c1.61-2.37,3.35-4.65,4.99-7c1.95-2.79,3.83-5.62,5.76-8.42
	c2.05-2.97,4.13-5.91,6.17-8.89c1.95-2.86,3.86-5.75,5.8-8.61c1.61-2.37,3.28-4.7,4.86-7.09c1.42-2.14,2.66-4.39,4.14-6.48
	c1.69-2.39,3.58-4.65,5.35-6.99c0.49-0.64,0.85-1.38,1.32-2.04c2.5-3.59,5.04-7.15,7.51-10.75c2.21-3.23,4.32-6.54,6.55-9.76
	c2.55-3.7,5.23-7.31,7.76-11.02c1.63-2.39,3.03-4.95,4.64-7.35c1.71-2.54,3.58-4.97,5.33-7.49c2.9-4.18,5.77-8.39,8.64-12.59
	c2.36-3.46,4.68-6.95,7.07-10.4c0.24-0.34,0.74-0.6,1.16-0.71c5.54-1.46,11.09-2.91,16.64-4.31c2.82-0.71,5.67-1.32,8.51-1.94
	C317.19,394.38,318.08,394.34,318.96,394.23z"></path>
<path class="st0 eYiOsFTr_7" d="M225.9,123.23c-0.79,1.39-1.52,2.82-2.4,4.15c-2.02,3.04-4.1,6.04-6.19,9.04c-1.54,2.21-3.17,4.35-4.69,6.57
	c-1.69,2.46-3.27,4.99-4.94,7.46c-1.63,2.41-3.36,4.75-4.99,7.16c-1.64,2.42-3.2,4.89-4.84,7.3c-1.64,2.42-3.4,4.76-5.01,7.2
	c-2.42,3.64-4.71,7.37-7.16,10.99c-2.15,3.18-4.51,6.22-6.69,9.38c-3.44,5-6.76,10.07-10.2,15.07c-2.89,4.21-5.89,8.35-8.81,12.55
	c-2.71,3.91-5.34,7.88-8.1,11.75c-0.42,0.59-1.37,1.13-2.09,1.14c-4.28,0.11-8.56,0.05-12.82,0.05c-0.21,2.41-0.44,4.28-0.53,6.17
	c-0.27,5.35-0.46,10.7-0.77,16.05c-0.04,0.77-0.45,1.6-0.9,2.26c-5.15,7.51-10.37,14.97-15.53,22.47c-2.62,3.82-5.1,7.74-7.77,11.53
	c-0.46,0.65-1.54,1.22-2.33,1.22c-22.97,0.06-45.95,0.05-68.92,0.05c-0.41,0-0.82-0.05-1.69-0.11c0.55-1.46,0.81-2.87,1.53-3.96
	c2.94-4.45,6.1-8.74,9.02-13.2c2.72-4.16,5.18-8.5,7.84-12.7c3.42-5.4,6.91-10.76,10.42-16.1c3.45-5.25,7.01-10.43,10.42-15.71
	c2.51-3.89,4.79-7.92,7.31-11.81c1.93-2.99,4.12-5.81,6.09-8.77c2.43-3.67,4.75-7.42,7.13-11.13c1.91-2.99,3.86-5.95,5.77-8.94
	c1.64-2.57,3.21-5.18,4.89-7.73c1.36-2.06,2.87-4.03,4.23-6.09c1.77-2.67,3.46-5.39,5.17-8.11c1.55-2.46,3.05-4.95,4.61-7.4
	c2.19-3.43,4.41-6.85,6.63-10.25c1.54-2.36,3.15-4.68,4.67-7.05c2.12-3.3,4.16-6.65,6.28-9.95c0.3-0.47,0.83-1.03,1.33-1.11
	c1.87-0.31,3.78-0.43,5.67-0.66c2.35-0.29,4.7-0.63,7.05-0.92c2.81-0.35,5.62-0.7,8.44-0.99c3.76-0.39,7.54-0.67,11.3-1.11
	c4.48-0.53,8.94-1.23,13.43-1.77c5.45-0.65,10.92-1.18,16.37-1.82c5.66-0.67,11.3-1.43,16.95-2.15c1.46-0.18,2.93-0.33,4.39-0.5
	C225.6,122.91,225.75,123.07,225.9,123.23z"></path>
<path class="st0 eYiOsFTr_8" d="M448.53,353.28c0.74,2.69,1.39,5.4,2.22,8.05c1.83,5.81,3.85,11.56,5.62,17.39
	c3.92,12.94,7.73,25.92,11.61,38.88c0.99,3.33,2.13,6.61,3.08,9.95c0.38,1.32,0.2,2.51-0.9,3.73c-2.69,2.97-5.09,6.21-7.69,9.28
	c-2.09,2.47-4.32,4.82-6.42,7.28c-3.79,4.45-7.5,8.95-11.29,13.4c-2.43,2.86-4.96,5.64-7.38,8.5c-3.4,4.03-6.73,8.12-10.13,12.15
	c-1.8,2.15-3.71,4.21-5.51,6.36c-2.65,3.17-5.24,6.39-7.86,9.58c-0.15,0.18-0.32,0.36-0.47,0.54c-3.26,3.75-6.52,7.49-9.77,11.24
	c-2.16,2.5-4.31,5.01-6.47,7.51c-1.56,1.81-3.13,3.6-4.69,5.42c-0.61,0.71-1.06,0.7-1.95,0.19c-1.86-1.06-3.93-1.77-5.88-2.69
	c-4.86-2.28-9.68-4.63-14.55-6.89c-3.76-1.75-7.59-3.35-11.34-5.12c-4.36-2.05-8.65-4.25-13.01-6.31c-1.89-0.89-3.87-1.6-6.31-2.6
	c0.7-1.27,1.24-2.59,2.06-3.68c3.96-5.25,8.01-10.43,11.99-15.67c2.09-2.74,4.1-5.54,6.16-8.3c2.13-2.86,4.31-5.67,6.39-8.57
	c1.65-2.31,3.14-4.73,4.76-7.06c0.72-1.03,1.47-2.08,2.42-2.88c0.76-0.64,1.88-0.84,2.77-1.36c3.29-1.94,6.53-3.94,9.81-5.89
	c6.16-3.66,12.34-7.28,18.5-10.94c4.75-2.81,9.48-5.65,14.22-8.47c1.71-1.02,3.43-2.02,5.29-3.11c-1.31-3.04-2.57-6.05-3.91-9.03
	c-2.02-4.49-4.13-8.94-6.12-13.44c-0.16-0.36,0.23-1.09,0.54-1.52c3.94-5.36,7.92-10.68,11.86-16.04
	c5.05-6.87,10.07-13.77,15.08-20.67c1.83-2.52,3.6-5.09,5.41-7.63c0.4-0.57,0.85-1.1,1.28-1.65
	C448.16,353.24,448.35,353.26,448.53,353.28z"></path>
<path class="st0 eYiOsFTr_9" d="M442.36,181.24c0.54,2.83,1.3,5.32,1.44,7.83c0.39,7.14,0.73,14.3,0.7,21.44c-0.02,3.86-0.71,7.75-1.33,11.58
	c-0.58,3.63-1.25,7.28-2.28,10.8c-0.78,2.67-2.12,5.19-3.36,7.71c-1.25,2.51-2.67,4.94-4.05,7.39c-1.2,2.13-2.39,4.27-3.72,6.32
	c-0.63,0.97-1.94,1.61-2.31,2.63c-0.56,1.58-2.1,2-2.95,3.19c-0.89,1.26-1.97,2.39-3.02,3.52c-1.58,1.7-3.18,3.38-4.81,5.02
	c-0.72,0.72-1.69,1.22-2.31,2.01c-1.83,2.32-4.46,3.66-6.6,5.62c-2.27,2.07-5.02,3.6-7.55,5.38c-1.91,1.35-3.73,2.82-5.69,4.08
	c-2.64,1.69-5.4,3.22-8.09,4.84c-2.39,1.44-4.71,3.02-7.16,4.37c-3.01,1.66-6.19,3.01-9.16,4.74c-2.29,1.33-4.36,3.04-6.53,4.58
	c-1.41,1-2.86,1.97-4.23,3.02c-1.84,1.41-3.62,2.9-5.45,4.32c-0.35,0.27-0.8,0.43-1.2,0.63c-0.15-0.1-0.3-0.21-0.45-0.31
	c0.68-1.19,1.33-2.41,2.06-3.57c1.63-2.58,3.27-5.16,4.99-7.68c1.48-2.18,3.07-4.29,4.6-6.44c2.06-2.88,4.12-5.76,6.15-8.66
	c1.73-2.47,3.44-4.95,5.12-7.46c2.07-3.09,4.07-6.22,6.15-9.31c1.51-2.24,3.09-4.43,4.64-6.64c2.46-3.51,4.94-7.02,7.39-10.54
	c1.61-2.3,3.2-4.61,4.79-6.92c2.76-4.01,5.51-8.02,8.27-12.04c2.76-4.02,5.54-8.04,8.28-12.08c3.15-4.64,6.24-9.31,9.42-13.93
	c1.24-1.81,2.73-3.45,3.97-5.25c2.76-4,5.42-8.06,8.14-12.08c1.54-2.27,3.09-4.54,4.68-6.78
	C441.18,182.16,441.65,181.87,442.36,181.24z"></path>
<path class="st0 eYiOsFTr_10" d="M274.17,225.73c0.29-3.57,0.53-6.75,0.81-9.93c0.23-2.59,0.43-5.19,0.76-7.77c0.71-5.55,1.44-11.09,2.28-16.62
	c0.58-3.83,1.16-7.69,2.13-11.44c0.96-3.71,2.55-7.26,3.6-10.95c1.38-4.85,3.64-9.29,6.08-13.62c1.02-1.81,2.09-3.66,3.65-5.25
	c2.61-2.65,4.78-5.73,7.1-8.66c2.4-3.03,5.55-5.27,8.31-7.91c1.89-1.81,4.24-3.16,6.49-4.56c2.86-1.79,5.79-3.48,8.76-5.09
	c2.72-1.48,5.45-3.03,8.33-4.12c3.06-1.16,6.3-1.83,9.48-2.67c1.99-0.52,4-0.98,6.02-1.37c0.44-0.08,0.95,0.24,1.43,0.38
	c-0.15,0.46-0.22,0.98-0.48,1.37c-3.42,5.12-6.84,10.24-10.32,15.32c-1.87,2.72-3.89,5.33-5.78,8.04c-1.56,2.24-3.02,4.55-4.53,6.82
	c-2.91,4.38-5.78,8.78-8.73,13.13c-2.92,4.3-5.93,8.54-8.89,12.8c-4.04,5.8-8.12,11.58-12.1,17.42c-2.65,3.89-5.15,7.88-7.76,11.8
	c-2.74,4.12-5.51,8.24-8.31,12.32c-2.29,3.34-4.64,6.64-6.99,9.93C275.34,225.34,274.92,225.39,274.17,225.73z"></path>
<style data-made-with="vivus-instant">.eYiOsFTr_0{stroke-dasharray:682 684;stroke-dashoffset:683;animation:eYiOsFTr_draw_0 3300ms linear 0ms infinite,eYiOsFTr_fade 3300ms linear 0ms infinite;}.eYiOsFTr_1{stroke-dasharray:429 431;stroke-dashoffset:430;animation:eYiOsFTr_draw_1 3300ms linear 0ms infinite,eYiOsFTr_fade 3300ms linear 0ms infinite;}.eYiOsFTr_2{stroke-dasharray:655 657;stroke-dashoffset:656;animation:eYiOsFTr_draw_2 3300ms linear 0ms infinite,eYiOsFTr_fade 3300ms linear 0ms infinite;}.eYiOsFTr_3{stroke-dasharray:641 643;stroke-dashoffset:642;animation:eYiOsFTr_draw_3 3300ms linear 0ms infinite,eYiOsFTr_fade 3300ms linear 0ms infinite;}.eYiOsFTr_4{stroke-dasharray:757 759;stroke-dashoffset:758;animation:eYiOsFTr_draw_4 3300ms linear 0ms infinite,eYiOsFTr_fade 3300ms linear 0ms infinite;}.eYiOsFTr_5{stroke-dasharray:523 525;stroke-dashoffset:524;animation:eYiOsFTr_draw_5 3300ms linear 0ms infinite,eYiOsFTr_fade 3300ms linear 0ms infinite;}.eYiOsFTr_6{stroke-dasharray:473 475;stroke-dashoffset:474;animation:eYiOsFTr_draw_6 3300ms linear 0ms infinite,eYiOsFTr_fade 3300ms linear 0ms infinite;}.eYiOsFTr_7{stroke-dasharray:562 564;stroke-dashoffset:563;animation:eYiOsFTr_draw_7 3300ms linear 0ms infinite,eYiOsFTr_fade 3300ms linear 0ms infinite;}.eYiOsFTr_8{stroke-dasharray:460 462;stroke-dashoffset:461;animation:eYiOsFTr_draw_8 3300ms linear 0ms infinite,eYiOsFTr_fade 3300ms linear 0ms infinite;}.eYiOsFTr_9{stroke-dasharray:333 335;stroke-dashoffset:334;animation:eYiOsFTr_draw_9 3300ms linear 0ms infinite,eYiOsFTr_fade 3300ms linear 0ms infinite;}.eYiOsFTr_10{stroke-dasharray:280 282;stroke-dashoffset:281;animation:eYiOsFTr_draw_10 3300ms linear 0ms infinite,eYiOsFTr_fade 3300ms linear 0ms infinite;}@keyframes eYiOsFTr_draw{100%{stroke-dashoffset:0;}}@keyframes eYiOsFTr_fade{0%{stroke-opacity:1;}84.84848484848484%{stroke-opacity:1;}100%{stroke-opacity:0;}}@keyframes eYiOsFTr_draw_0{24.242424242424242%{stroke-dashoffset: 683}64.64646464646465%{ stroke-dashoffset: 0;}100%{ stroke-dashoffset: 0;}}@keyframes eYiOsFTr_draw_1{26.26262626262626%{stroke-dashoffset: 430}66.66666666666666%{ stroke-dashoffset: 0;}100%{ stroke-dashoffset: 0;}}@keyframes eYiOsFTr_draw_2{28.28282828282828%{stroke-dashoffset: 656}68.68686868686869%{ stroke-dashoffset: 0;}100%{ stroke-dashoffset: 0;}}@keyframes eYiOsFTr_draw_3{30.303030303030305%{stroke-dashoffset: 642}70.70707070707071%{ stroke-dashoffset: 0;}100%{ stroke-dashoffset: 0;}}@keyframes eYiOsFTr_draw_4{32.32323232323232%{stroke-dashoffset: 758}72.72727272727273%{ stroke-dashoffset: 0;}100%{ stroke-dashoffset: 0;}}@keyframes eYiOsFTr_draw_5{34.34343434343434%{stroke-dashoffset: 524}74.74747474747475%{ stroke-dashoffset: 0;}100%{ stroke-dashoffset: 0;}}@keyframes eYiOsFTr_draw_6{36.36363636363637%{stroke-dashoffset: 474}76.76767676767678%{ stroke-dashoffset: 0;}100%{ stroke-dashoffset: 0;}}@keyframes eYiOsFTr_draw_7{38.38383838383838%{stroke-dashoffset: 563}78.78787878787878%{ stroke-dashoffset: 0;}100%{ stroke-dashoffset: 0;}}@keyframes eYiOsFTr_draw_8{40.4040404040404%{stroke-dashoffset: 461}80.80808080808082%{ stroke-dashoffset: 0;}100%{ stroke-dashoffset: 0;}}@keyframes eYiOsFTr_draw_9{42.42424242424242%{stroke-dashoffset: 334}82.82828282828282%{ stroke-dashoffset: 0;}100%{ stroke-dashoffset: 0;}}@keyframes eYiOsFTr_draw_10{44.44444444444444%{stroke-dashoffset: 281}84.84848484848484%{ stroke-dashoffset: 0;}100%{ stroke-dashoffset: 0;}}</style></svg>
